# xmcd
#
# Track frame offsets: 
#        150
#        17236
#        34591
#        52680
#        70675
#        89156
#        106057
#        124734
#        139500
#        155096
#        170774
#
# Disc length: 2489 seconds
#
# Revision: 4
# Processed by: cddbd v1.5.2PL0 Copyright (c) Steve Scherf et al.
# Submitted via: ExactAudioCopyFreeDBPlugin 1.0
#
DISCID=8d09b70b
DTITLE=Trapt - Someone in Control
DYEAR=2005
DGENRE=Rock
TTITLE0=Disconnected (Out of Touch)
TTITLE1=Waiting
TTITLE2=Victim
TTITLE3=Stand Up
TTITLE4=Lost Realist
TTITLE5=Skin Deep
TTITLE6=Influence
TTITLE7=Repeat Offender
TTITLE8=Bleed Like Me
TTITLE9=Use Me to Use You
TTITLE10=Product of My Own Design
EXTD=YEAR: 2005
EXTT0=
EXTT1=
EXTT2=
EXTT3=
EXTT4=
EXTT5=
EXTT6=
EXTT7=
EXTT8=
EXTT9=
EXTT10=
PLAYORDER=
